<?xml version="1.0" standalone="no"?>
<!DOCTYPE svg PUBLIC "-//W3C//DTD SVG 20010904//EN"
 "http://www.w3.org/TR/2001/REC-SVG-20010904/DTD/svg10.dtd">
<svg version="1.0" xmlns="http://www.w3.org/2000/svg"
 width="300.000000pt" height="300.000000pt" viewBox="0 0 300.000000 300.000000"
 preserveAspectRatio="xMidYMid meet">
<metadata>
Created by potrace 1.11, written by Peter Selinger 2001-2013
</metadata>
<g transform="translate(0.000000,300.000000) scale(0.100000,-0.100000)"
fill="#000000" stroke="none">
<path d="M1331 2989 c-564 -66 -1050 -450 -1241 -982 -198 -551 -57 -1164 361
-1574 289 -283 642 -426 1049 -426 168 0 272 14 425 58 454 132 829 485 985
930 193 544 61 1144 -341 1553 -323 329 -785 493 -1238 441z m-381 -1129 l0
-430 -115 0 -115 0 0 430 0 430 115 0 115 0 0 -430z m997 358 c-4 -13 -57
-195 -119 -405 l-113 -383 -132 0 c-73 0 -133 2 -133 4 0 2 61 172 136 377 75
206 141 386 146 402 l10 27 105 0 c104 0 105 0 100 -22z m267 -429 c69 -190
126 -349 126 -353 0 -3 -62 -5 -137 -4 l-138 3 -14 53 -14 52 -73 0 c-47 0
-74 4 -74 11 0 6 12 49 26 95 20 66 29 84 44 84 16 0 17 4 9 32 -7 26 0 61 37
187 68 235 66 229 74 206 4 -11 64 -176 134 -366z m-885 160 c-52 -55 -102
-112 -113 -125 l-18 -25 99 -157 c55 -86 107 -169 117 -184 l18 -28 -134 0
-134 0 -72 119 -72 118 0 116 0 115 63 76 62 76 139 0 138 0 -93 -101z m331
-774 c0 -6 -67 -178 -149 -381 -125 -309 -152 -370 -170 -372 -12 -2 -24 3
-27 11 -6 17 283 742 304 764 11 10 17 11 28 2 8 -6 14 -17 14 -24z m-405
-156 c6 -18 -10 -38 -86 -115 l-93 -94 93 -94 c90 -93 108 -126 71 -134 -8 -1
-67 49 -130 113 l-115 115 115 115 c63 63 120 115 127 115 6 0 15 -10 18 -21z
m575 -94 l115 -115 -115 -115 c-112 -112 -141 -130 -148 -91 -3 13 25 48 89
112 l94 94 -93 93 c-85 85 -103 113 -85 130 15 16 34 1 143 -108z"/>
</g>
</svg>
