<?xml version="1.0" standalone="no"?>
<!DOCTYPE svg PUBLIC "-//W3C//DTD SVG 20010904//EN"
 "http://www.w3.org/TR/2001/REC-SVG-20010904/DTD/svg10.dtd">
<svg version="1.0" xmlns="http://www.w3.org/2000/svg"
 width="600.000000pt" height="600.000000pt" viewBox="0 0 600.000000 600.000000"
 preserveAspectRatio="xMidYMid meet">
<metadata>
Created by potrace 1.14, written by Peter Selinger 2001-2017
</metadata>
<g transform="translate(0.000000,600.000000) scale(0.100000,-0.100000)"
fill="#000000" stroke="none">
<path d="M0 3000 l0 -3000 3000 0 3000 0 0 3000 0 3000 -3000 0 -3000 0 0
-3000z m2149 1166 c65 -33 153 -114 193 -175 24 -39 28 -55 28 -118 0 -65 -3
-77 -25 -98 -17 -18 -35 -25 -63 -25 -46 0 -58 11 -127 123 -96 155 -190 160
-358 22 -78 -65 -136 -135 -214 -260 -153 -245 -257 -502 -298 -735 -22 -120
-6 -229 37 -265 52 -44 108 -29 229 60 92 68 217 196 285 291 36 51 60 105
110 247 72 205 87 227 161 227 60 0 83 -32 83 -116 0 -63 -19 -132 -118 -429
-65 -194 -160 -503 -183 -598 -15 -59 -34 -108 -60 -148 -37 -57 -40 -59 -82
-59 -24 0 -48 5 -55 12 -17 17 -15 183 3 233 9 22 31 96 51 165 20 68 39 131
42 140 3 8 -34 -22 -84 -68 -96 -90 -223 -179 -292 -206 -62 -24 -174 -21
-229 5 -47 23 -97 78 -134 149 -23 42 -24 55 -24 215 0 190 12 263 72 443 36
108 140 332 215 463 141 244 369 465 536 520 88 29 229 22 301 -15z m1715
-131 c11 -8 22 -33 26 -60 6 -40 2 -56 -41 -149 -26 -57 -62 -144 -79 -192
-17 -49 -51 -133 -76 -187 -25 -55 -69 -160 -98 -235 -29 -76 -83 -209 -119
-297 -72 -176 -99 -281 -77 -295 16 -10 65 8 113 41 109 75 222 168 276 225
54 58 66 78 88 148 30 97 76 190 108 222 31 31 83 32 114 2 21 -19 23 -28 18
-79 l-5 -59 71 66 c94 87 178 127 272 132 59 3 77 0 115 -20 59 -32 90 -78 90
-135 0 -86 -78 -230 -200 -368 -34 -39 -82 -97 -107 -129 -42 -54 -44 -61 -28
-72 9 -7 24 -10 33 -7 43 16 135 87 324 251 205 179 223 192 258 192 63 0 49
-158 -18 -211 -14 -10 -88 -77 -165 -147 -176 -160 -224 -196 -317 -240 -64
-31 -88 -36 -166 -40 -105 -5 -142 8 -174 61 -48 78 -6 174 172 393 57 71 117
147 131 169 90 133 -73 114 -213 -25 -57 -58 -155 -185 -192 -250 -75 -132
-216 -468 -318 -756 -46 -131 -93 -184 -164 -184 -29 0 -52 7 -71 22 -27 21
-27 24 -21 91 7 77 15 97 179 442 58 121 103 222 101 224 -2 2 -22 -13 -45
-33 -52 -48 -161 -118 -217 -139 -24 -10 -71 -17 -109 -17 -55 0 -72 4 -99 25
-18 14 -35 38 -39 55 -4 16 -8 30 -11 30 -2 0 -26 -14 -53 -30 -111 -69 -229
-98 -282 -70 -34 19 -49 64 -49 147 l0 78 -25 -37 c-67 -99 -222 -188 -341
-196 -88 -6 -134 8 -173 53 -39 45 -46 89 -32 189 19 134 166 531 234 629 25
37 67 57 119 57 49 0 60 -6 77 -38 19 -36 6 -74 -80 -239 -63 -121 -85 -174
-105 -258 -33 -139 -24 -171 46 -159 44 8 63 18 123 63 88 65 197 235 256 398
71 194 98 233 159 233 43 0 55 -6 71 -37 28 -53 3 -152 -83 -338 -28 -60 -58
-144 -73 -209 -25 -106 -25 -110 -7 -123 23 -17 62 -10 131 24 59 29 86 55
101 98 46 131 167 439 316 810 199 493 206 505 288 505 24 0 52 -7 62 -15z"/>
</g>
</svg>
